<mxfile host="app.diagrams.net" agent="Mozilla/5.0 (Windows NT 10.0; Win64; x64) AppleWebKit/537.36 (KHTML, like Gecko) Chrome/128.0.0.0 Safari/537.36" version="24.7.10">
  <diagram name="Страница — 1" id="SB3F7TAPo3gbIM2Y3QCS">
    <mxGraphModel dx="782" dy="446" grid="1" gridSize="10" guides="1" tooltips="1" connect="1" arrows="1" fold="1" page="1" pageScale="1" pageWidth="827" pageHeight="1169" math="0" shadow="0">
      <root>
        <mxCell id="0" />
        <mxCell id="1" parent="0" />
        <mxCell id="kLRiGpMpUWYHcSc46owO-39" style="edgeStyle=orthogonalEdgeStyle;rounded=0;orthogonalLoop=1;jettySize=auto;html=1;entryX=0;entryY=0.5;entryDx=0;entryDy=0;strokeColor=default;endArrow=none;endFill=0;exitX=0.5;exitY=0;exitDx=0;exitDy=0;" edge="1" parent="1" source="kLRiGpMpUWYHcSc46owO-27" target="kLRiGpMpUWYHcSc46owO-30">
          <mxGeometry relative="1" as="geometry" />
        </mxCell>
        <mxCell id="kLRiGpMpUWYHcSc46owO-44" value="*" style="edgeLabel;html=1;align=center;verticalAlign=middle;resizable=0;points=[];" vertex="1" connectable="0" parent="kLRiGpMpUWYHcSc46owO-39">
          <mxGeometry x="0.7188" y="1" relative="1" as="geometry">
            <mxPoint x="-145" y="61" as="offset" />
          </mxGeometry>
        </mxCell>
        <mxCell id="kLRiGpMpUWYHcSc46owO-67" style="edgeStyle=orthogonalEdgeStyle;shape=connector;rounded=0;orthogonalLoop=1;jettySize=auto;html=1;entryX=0.5;entryY=0;entryDx=0;entryDy=0;strokeColor=default;align=center;verticalAlign=middle;fontFamily=Helvetica;fontSize=11;fontColor=default;labelBackgroundColor=default;endArrow=none;endFill=0;" edge="1" parent="1" source="kLRiGpMpUWYHcSc46owO-27" target="kLRiGpMpUWYHcSc46owO-66">
          <mxGeometry relative="1" as="geometry" />
        </mxCell>
        <mxCell id="kLRiGpMpUWYHcSc46owO-121" value="*" style="edgeLabel;html=1;align=center;verticalAlign=middle;resizable=0;points=[];fontFamily=Helvetica;fontSize=11;fontColor=default;labelBackgroundColor=default;" vertex="1" connectable="0" parent="kLRiGpMpUWYHcSc46owO-67">
          <mxGeometry x="-0.8588" y="-3" relative="1" as="geometry">
            <mxPoint as="offset" />
          </mxGeometry>
        </mxCell>
        <mxCell id="kLRiGpMpUWYHcSc46owO-27" value="Студент" style="rounded=1;arcSize=10;whiteSpace=wrap;html=1;align=center;" vertex="1" parent="1">
          <mxGeometry x="190" y="190" width="100" height="40" as="geometry" />
        </mxCell>
        <mxCell id="kLRiGpMpUWYHcSc46owO-49" style="edgeStyle=orthogonalEdgeStyle;shape=connector;rounded=0;orthogonalLoop=1;jettySize=auto;html=1;entryX=0.5;entryY=0;entryDx=0;entryDy=0;strokeColor=default;align=center;verticalAlign=middle;fontFamily=Helvetica;fontSize=11;fontColor=default;labelBackgroundColor=default;endArrow=none;endFill=0;" edge="1" parent="1" source="kLRiGpMpUWYHcSc46owO-30" target="kLRiGpMpUWYHcSc46owO-47">
          <mxGeometry relative="1" as="geometry" />
        </mxCell>
        <mxCell id="kLRiGpMpUWYHcSc46owO-120" value="1" style="edgeLabel;html=1;align=center;verticalAlign=middle;resizable=0;points=[];fontFamily=Helvetica;fontSize=11;fontColor=default;labelBackgroundColor=default;" vertex="1" connectable="0" parent="kLRiGpMpUWYHcSc46owO-49">
          <mxGeometry x="0.8777" relative="1" as="geometry">
            <mxPoint as="offset" />
          </mxGeometry>
        </mxCell>
        <mxCell id="kLRiGpMpUWYHcSc46owO-30" value="Деканат" style="shape=rhombus;perimeter=rhombusPerimeter;whiteSpace=wrap;html=1;align=center;" vertex="1" parent="1">
          <mxGeometry x="420" y="90" width="120" height="60" as="geometry" />
        </mxCell>
        <mxCell id="kLRiGpMpUWYHcSc46owO-47" value="Сотрудник" style="rounded=1;arcSize=10;whiteSpace=wrap;html=1;align=center;" vertex="1" parent="1">
          <mxGeometry x="670" y="210" width="100" height="40" as="geometry" />
        </mxCell>
        <mxCell id="kLRiGpMpUWYHcSc46owO-52" value="Группа" style="rounded=1;arcSize=10;whiteSpace=wrap;html=1;align=center;" vertex="1" parent="1">
          <mxGeometry x="190" y="625" width="100" height="40" as="geometry" />
        </mxCell>
        <mxCell id="kLRiGpMpUWYHcSc46owO-56" value="Оценка" style="ellipse;whiteSpace=wrap;html=1;align=center;fontFamily=Helvetica;fontSize=11;fontColor=default;labelBackgroundColor=default;" vertex="1" parent="1">
          <mxGeometry x="364" y="180" width="100" height="40" as="geometry" />
        </mxCell>
        <mxCell id="kLRiGpMpUWYHcSc46owO-64" style="edgeStyle=orthogonalEdgeStyle;shape=connector;rounded=0;orthogonalLoop=1;jettySize=auto;html=1;entryX=0;entryY=0.5;entryDx=0;entryDy=0;strokeColor=default;align=center;verticalAlign=middle;fontFamily=Helvetica;fontSize=11;fontColor=default;labelBackgroundColor=default;endArrow=none;endFill=0;" edge="1" parent="1" source="kLRiGpMpUWYHcSc46owO-57" target="kLRiGpMpUWYHcSc46owO-27">
          <mxGeometry relative="1" as="geometry" />
        </mxCell>
        <mxCell id="kLRiGpMpUWYHcSc46owO-57" value="Паспортные данные" style="ellipse;whiteSpace=wrap;html=1;align=center;fontStyle=4;fontFamily=Helvetica;fontSize=11;fontColor=default;labelBackgroundColor=default;" vertex="1" parent="1">
          <mxGeometry x="30" y="130" width="120" height="50" as="geometry" />
        </mxCell>
        <mxCell id="kLRiGpMpUWYHcSc46owO-60" style="edgeStyle=orthogonalEdgeStyle;shape=connector;rounded=0;orthogonalLoop=1;jettySize=auto;html=1;entryX=0.5;entryY=1;entryDx=0;entryDy=0;strokeColor=default;align=center;verticalAlign=middle;fontFamily=Helvetica;fontSize=11;fontColor=default;labelBackgroundColor=default;endArrow=none;endFill=0;" edge="1" parent="1" source="kLRiGpMpUWYHcSc46owO-58" target="kLRiGpMpUWYHcSc46owO-56">
          <mxGeometry relative="1" as="geometry" />
        </mxCell>
        <mxCell id="kLRiGpMpUWYHcSc46owO-61" style="edgeStyle=orthogonalEdgeStyle;shape=connector;rounded=0;orthogonalLoop=1;jettySize=auto;html=1;entryX=0.5;entryY=1;entryDx=0;entryDy=0;strokeColor=default;align=center;verticalAlign=middle;fontFamily=Helvetica;fontSize=11;fontColor=default;labelBackgroundColor=default;endArrow=none;endFill=0;" edge="1" parent="1" source="kLRiGpMpUWYHcSc46owO-58" target="kLRiGpMpUWYHcSc46owO-59">
          <mxGeometry relative="1" as="geometry" />
        </mxCell>
        <mxCell id="kLRiGpMpUWYHcSc46owO-83" value="" style="edgeStyle=orthogonalEdgeStyle;shape=connector;rounded=0;orthogonalLoop=1;jettySize=auto;html=1;strokeColor=default;align=center;verticalAlign=middle;fontFamily=Helvetica;fontSize=11;fontColor=default;labelBackgroundColor=default;endArrow=none;endFill=0;entryX=0;entryY=0.5;entryDx=0;entryDy=0;" edge="1" parent="1" source="kLRiGpMpUWYHcSc46owO-58" target="kLRiGpMpUWYHcSc46owO-75">
          <mxGeometry relative="1" as="geometry" />
        </mxCell>
        <mxCell id="kLRiGpMpUWYHcSc46owO-129" value="*" style="edgeLabel;html=1;align=center;verticalAlign=middle;resizable=0;points=[];fontFamily=Helvetica;fontSize=11;fontColor=default;labelBackgroundColor=default;" vertex="1" connectable="0" parent="kLRiGpMpUWYHcSc46owO-83">
          <mxGeometry x="0.5" y="-2" relative="1" as="geometry">
            <mxPoint as="offset" />
          </mxGeometry>
        </mxCell>
        <mxCell id="kLRiGpMpUWYHcSc46owO-85" style="edgeStyle=orthogonalEdgeStyle;shape=connector;rounded=0;orthogonalLoop=1;jettySize=auto;html=1;entryX=1;entryY=0.5;entryDx=0;entryDy=0;strokeColor=default;align=center;verticalAlign=middle;fontFamily=Helvetica;fontSize=11;fontColor=default;labelBackgroundColor=default;endArrow=none;endFill=0;" edge="1" parent="1" source="kLRiGpMpUWYHcSc46owO-58" target="kLRiGpMpUWYHcSc46owO-27">
          <mxGeometry relative="1" as="geometry" />
        </mxCell>
        <mxCell id="kLRiGpMpUWYHcSc46owO-119" value="*" style="edgeLabel;html=1;align=center;verticalAlign=middle;resizable=0;points=[];fontFamily=Helvetica;fontSize=11;fontColor=default;labelBackgroundColor=default;" vertex="1" connectable="0" parent="kLRiGpMpUWYHcSc46owO-85">
          <mxGeometry x="0.9055" y="-1" relative="1" as="geometry">
            <mxPoint as="offset" />
          </mxGeometry>
        </mxCell>
        <mxCell id="kLRiGpMpUWYHcSc46owO-136" style="edgeStyle=orthogonalEdgeStyle;shape=connector;rounded=0;orthogonalLoop=1;jettySize=auto;html=1;entryX=0;entryY=0.5;entryDx=0;entryDy=0;strokeColor=default;align=center;verticalAlign=middle;fontFamily=Helvetica;fontSize=11;fontColor=default;labelBackgroundColor=default;endArrow=none;endFill=0;" edge="1" parent="1" source="kLRiGpMpUWYHcSc46owO-58" target="kLRiGpMpUWYHcSc46owO-47">
          <mxGeometry relative="1" as="geometry" />
        </mxCell>
        <mxCell id="kLRiGpMpUWYHcSc46owO-137" value="*" style="edgeLabel;html=1;align=center;verticalAlign=middle;resizable=0;points=[];fontFamily=Helvetica;fontSize=11;fontColor=default;labelBackgroundColor=default;" vertex="1" connectable="0" parent="kLRiGpMpUWYHcSc46owO-136">
          <mxGeometry x="0.8659" y="-2" relative="1" as="geometry">
            <mxPoint as="offset" />
          </mxGeometry>
        </mxCell>
        <mxCell id="kLRiGpMpUWYHcSc46owO-58" value="Оценивание" style="shape=rhombus;perimeter=rhombusPerimeter;whiteSpace=wrap;html=1;align=center;" vertex="1" parent="1">
          <mxGeometry x="420" y="320" width="120" height="60" as="geometry" />
        </mxCell>
        <mxCell id="kLRiGpMpUWYHcSc46owO-59" value="Дата" style="ellipse;whiteSpace=wrap;html=1;align=center;fontFamily=Helvetica;fontSize=11;fontColor=default;labelBackgroundColor=default;" vertex="1" parent="1">
          <mxGeometry x="510" y="180" width="100" height="40" as="geometry" />
        </mxCell>
        <mxCell id="kLRiGpMpUWYHcSc46owO-65" style="edgeStyle=orthogonalEdgeStyle;shape=connector;rounded=0;orthogonalLoop=1;jettySize=auto;html=1;entryX=0;entryY=0.5;entryDx=0;entryDy=0;strokeColor=default;align=center;verticalAlign=middle;fontFamily=Helvetica;fontSize=11;fontColor=default;labelBackgroundColor=default;endArrow=none;endFill=0;" edge="1" parent="1" source="kLRiGpMpUWYHcSc46owO-62" target="kLRiGpMpUWYHcSc46owO-27">
          <mxGeometry relative="1" as="geometry" />
        </mxCell>
        <mxCell id="kLRiGpMpUWYHcSc46owO-62" value="ФИО" style="ellipse;whiteSpace=wrap;html=1;align=center;fontFamily=Helvetica;fontSize=11;fontColor=default;labelBackgroundColor=default;" vertex="1" parent="1">
          <mxGeometry x="30" y="240" width="120" height="50" as="geometry" />
        </mxCell>
        <mxCell id="kLRiGpMpUWYHcSc46owO-68" style="edgeStyle=orthogonalEdgeStyle;shape=connector;rounded=0;orthogonalLoop=1;jettySize=auto;html=1;entryX=0.5;entryY=0;entryDx=0;entryDy=0;strokeColor=default;align=center;verticalAlign=middle;fontFamily=Helvetica;fontSize=11;fontColor=default;labelBackgroundColor=default;endArrow=none;endFill=0;" edge="1" parent="1" source="kLRiGpMpUWYHcSc46owO-66" target="kLRiGpMpUWYHcSc46owO-52">
          <mxGeometry relative="1" as="geometry" />
        </mxCell>
        <mxCell id="kLRiGpMpUWYHcSc46owO-122" value="1" style="edgeLabel;html=1;align=center;verticalAlign=middle;resizable=0;points=[];fontFamily=Helvetica;fontSize=11;fontColor=default;labelBackgroundColor=default;" vertex="1" connectable="0" parent="kLRiGpMpUWYHcSc46owO-68">
          <mxGeometry x="0.8805" y="1" relative="1" as="geometry">
            <mxPoint as="offset" />
          </mxGeometry>
        </mxCell>
        <mxCell id="kLRiGpMpUWYHcSc46owO-66" value="Состав группы" style="shape=rhombus;perimeter=rhombusPerimeter;whiteSpace=wrap;html=1;align=center;" vertex="1" parent="1">
          <mxGeometry x="180" y="400" width="120" height="60" as="geometry" />
        </mxCell>
        <mxCell id="kLRiGpMpUWYHcSc46owO-73" style="edgeStyle=orthogonalEdgeStyle;shape=connector;rounded=0;orthogonalLoop=1;jettySize=auto;html=1;entryX=0;entryY=0.5;entryDx=0;entryDy=0;strokeColor=default;align=center;verticalAlign=middle;fontFamily=Helvetica;fontSize=11;fontColor=default;labelBackgroundColor=default;endArrow=none;endFill=0;" edge="1" parent="1" source="kLRiGpMpUWYHcSc46owO-72" target="kLRiGpMpUWYHcSc46owO-52">
          <mxGeometry relative="1" as="geometry" />
        </mxCell>
        <mxCell id="kLRiGpMpUWYHcSc46owO-72" value="Номер группы" style="ellipse;whiteSpace=wrap;html=1;align=center;fontStyle=4;fontFamily=Helvetica;fontSize=11;fontColor=default;labelBackgroundColor=default;" vertex="1" parent="1">
          <mxGeometry x="50" y="625" width="100" height="40" as="geometry" />
        </mxCell>
        <mxCell id="kLRiGpMpUWYHcSc46owO-89" style="edgeStyle=orthogonalEdgeStyle;shape=connector;rounded=0;orthogonalLoop=1;jettySize=auto;html=1;entryX=0.5;entryY=1;entryDx=0;entryDy=0;strokeColor=default;align=center;verticalAlign=middle;fontFamily=Helvetica;fontSize=11;fontColor=default;labelBackgroundColor=default;endArrow=none;endFill=0;" edge="1" parent="1" source="kLRiGpMpUWYHcSc46owO-74" target="kLRiGpMpUWYHcSc46owO-75">
          <mxGeometry relative="1" as="geometry" />
        </mxCell>
        <mxCell id="kLRiGpMpUWYHcSc46owO-126" value="*" style="edgeLabel;html=1;align=center;verticalAlign=middle;resizable=0;points=[];fontFamily=Helvetica;fontSize=11;fontColor=default;labelBackgroundColor=default;" vertex="1" connectable="0" parent="kLRiGpMpUWYHcSc46owO-89">
          <mxGeometry x="0.8345" y="1" relative="1" as="geometry">
            <mxPoint as="offset" />
          </mxGeometry>
        </mxCell>
        <mxCell id="kLRiGpMpUWYHcSc46owO-100" style="edgeStyle=orthogonalEdgeStyle;shape=connector;rounded=0;orthogonalLoop=1;jettySize=auto;html=1;entryX=1;entryY=0.5;entryDx=0;entryDy=0;strokeColor=default;align=center;verticalAlign=middle;fontFamily=Helvetica;fontSize=11;fontColor=default;labelBackgroundColor=default;endArrow=none;endFill=0;" edge="1" parent="1" source="kLRiGpMpUWYHcSc46owO-74" target="kLRiGpMpUWYHcSc46owO-52">
          <mxGeometry relative="1" as="geometry" />
        </mxCell>
        <mxCell id="kLRiGpMpUWYHcSc46owO-123" value="*" style="edgeLabel;html=1;align=center;verticalAlign=middle;resizable=0;points=[];fontFamily=Helvetica;fontSize=11;fontColor=default;labelBackgroundColor=default;" vertex="1" connectable="0" parent="kLRiGpMpUWYHcSc46owO-100">
          <mxGeometry x="0.7802" relative="1" as="geometry">
            <mxPoint as="offset" />
          </mxGeometry>
        </mxCell>
        <mxCell id="kLRiGpMpUWYHcSc46owO-74" value="Расписание" style="shape=rhombus;perimeter=rhombusPerimeter;whiteSpace=wrap;html=1;align=center;" vertex="1" parent="1">
          <mxGeometry x="420" y="615" width="120" height="60" as="geometry" />
        </mxCell>
        <mxCell id="kLRiGpMpUWYHcSc46owO-81" value="" style="edgeStyle=orthogonalEdgeStyle;shape=connector;rounded=0;orthogonalLoop=1;jettySize=auto;html=1;strokeColor=default;align=center;verticalAlign=middle;fontFamily=Helvetica;fontSize=11;fontColor=default;labelBackgroundColor=default;endArrow=none;endFill=0;" edge="1" parent="1" source="kLRiGpMpUWYHcSc46owO-75" target="kLRiGpMpUWYHcSc46owO-80">
          <mxGeometry relative="1" as="geometry" />
        </mxCell>
        <mxCell id="kLRiGpMpUWYHcSc46owO-82" style="edgeStyle=orthogonalEdgeStyle;shape=connector;rounded=0;orthogonalLoop=1;jettySize=auto;html=1;entryX=0;entryY=0.5;entryDx=0;entryDy=0;strokeColor=default;align=center;verticalAlign=middle;fontFamily=Helvetica;fontSize=11;fontColor=default;labelBackgroundColor=default;endArrow=none;endFill=0;" edge="1" parent="1" source="kLRiGpMpUWYHcSc46owO-75" target="kLRiGpMpUWYHcSc46owO-77">
          <mxGeometry relative="1" as="geometry" />
        </mxCell>
        <mxCell id="kLRiGpMpUWYHcSc46owO-75" value="Предмет" style="rounded=1;arcSize=10;whiteSpace=wrap;html=1;align=center;" vertex="1" parent="1">
          <mxGeometry x="430" y="430" width="100" height="40" as="geometry" />
        </mxCell>
        <mxCell id="kLRiGpMpUWYHcSc46owO-77" value="Описание" style="ellipse;whiteSpace=wrap;html=1;align=center;fontFamily=Helvetica;fontSize=11;fontColor=default;labelBackgroundColor=default;" vertex="1" parent="1">
          <mxGeometry x="570" y="490" width="100" height="40" as="geometry" />
        </mxCell>
        <mxCell id="kLRiGpMpUWYHcSc46owO-80" value="Название" style="ellipse;whiteSpace=wrap;html=1;align=center;fontStyle=4;fontFamily=Helvetica;fontSize=11;fontColor=default;labelBackgroundColor=default;" vertex="1" parent="1">
          <mxGeometry x="700" y="490" width="100" height="40" as="geometry" />
        </mxCell>
        <mxCell id="kLRiGpMpUWYHcSc46owO-88" style="edgeStyle=orthogonalEdgeStyle;shape=connector;rounded=0;orthogonalLoop=1;jettySize=auto;html=1;entryX=0.5;entryY=1;entryDx=0;entryDy=0;strokeColor=default;align=center;verticalAlign=middle;fontFamily=Helvetica;fontSize=11;fontColor=default;labelBackgroundColor=default;endArrow=none;endFill=0;" edge="1" parent="1" source="kLRiGpMpUWYHcSc46owO-86" target="kLRiGpMpUWYHcSc46owO-47">
          <mxGeometry relative="1" as="geometry" />
        </mxCell>
        <mxCell id="kLRiGpMpUWYHcSc46owO-115" value="*" style="edgeLabel;html=1;align=center;verticalAlign=middle;resizable=0;points=[];fontFamily=Helvetica;fontSize=11;fontColor=default;labelBackgroundColor=default;" vertex="1" connectable="0" parent="kLRiGpMpUWYHcSc46owO-88">
          <mxGeometry x="0.3091" y="-1" relative="1" as="geometry">
            <mxPoint as="offset" />
          </mxGeometry>
        </mxCell>
        <mxCell id="kLRiGpMpUWYHcSc46owO-127" style="edgeStyle=orthogonalEdgeStyle;shape=connector;rounded=0;orthogonalLoop=1;jettySize=auto;html=1;entryX=1;entryY=0.25;entryDx=0;entryDy=0;strokeColor=default;align=center;verticalAlign=middle;fontFamily=Helvetica;fontSize=11;fontColor=default;labelBackgroundColor=default;endArrow=none;endFill=0;" edge="1" parent="1" source="kLRiGpMpUWYHcSc46owO-86" target="kLRiGpMpUWYHcSc46owO-75">
          <mxGeometry relative="1" as="geometry" />
        </mxCell>
        <mxCell id="kLRiGpMpUWYHcSc46owO-130" value="*" style="edgeLabel;html=1;align=center;verticalAlign=middle;resizable=0;points=[];fontFamily=Helvetica;fontSize=11;fontColor=default;labelBackgroundColor=default;" vertex="1" connectable="0" parent="kLRiGpMpUWYHcSc46owO-127">
          <mxGeometry x="0.5781" y="-1" relative="1" as="geometry">
            <mxPoint as="offset" />
          </mxGeometry>
        </mxCell>
        <mxCell id="kLRiGpMpUWYHcSc46owO-86" value="Название предмета" style="shape=rhombus;perimeter=rhombusPerimeter;whiteSpace=wrap;html=1;align=center;" vertex="1" parent="1">
          <mxGeometry x="650" y="355" width="140" height="70" as="geometry" />
        </mxCell>
        <mxCell id="kLRiGpMpUWYHcSc46owO-97" style="edgeStyle=orthogonalEdgeStyle;shape=connector;rounded=0;orthogonalLoop=1;jettySize=auto;html=1;entryX=1;entryY=0.5;entryDx=0;entryDy=0;strokeColor=default;align=center;verticalAlign=middle;fontFamily=Helvetica;fontSize=11;fontColor=default;labelBackgroundColor=default;endArrow=none;endFill=0;" edge="1" parent="1" source="kLRiGpMpUWYHcSc46owO-91" target="kLRiGpMpUWYHcSc46owO-74">
          <mxGeometry relative="1" as="geometry" />
        </mxCell>
        <mxCell id="kLRiGpMpUWYHcSc46owO-91" value="№ недели" style="ellipse;whiteSpace=wrap;html=1;align=center;fontFamily=Helvetica;fontSize=11;fontColor=default;labelBackgroundColor=default;" vertex="1" parent="1">
          <mxGeometry x="610" y="560" width="100" height="40" as="geometry" />
        </mxCell>
        <mxCell id="kLRiGpMpUWYHcSc46owO-98" style="edgeStyle=orthogonalEdgeStyle;shape=connector;rounded=0;orthogonalLoop=1;jettySize=auto;html=1;strokeColor=default;align=center;verticalAlign=middle;fontFamily=Helvetica;fontSize=11;fontColor=default;labelBackgroundColor=default;endArrow=none;endFill=0;" edge="1" parent="1" source="kLRiGpMpUWYHcSc46owO-92" target="kLRiGpMpUWYHcSc46owO-74">
          <mxGeometry relative="1" as="geometry" />
        </mxCell>
        <mxCell id="kLRiGpMpUWYHcSc46owO-92" value="день" style="ellipse;whiteSpace=wrap;html=1;align=center;fontFamily=Helvetica;fontSize=11;fontColor=default;labelBackgroundColor=default;" vertex="1" parent="1">
          <mxGeometry x="610" y="625" width="100" height="40" as="geometry" />
        </mxCell>
        <mxCell id="kLRiGpMpUWYHcSc46owO-99" style="edgeStyle=orthogonalEdgeStyle;shape=connector;rounded=0;orthogonalLoop=1;jettySize=auto;html=1;entryX=1;entryY=0.5;entryDx=0;entryDy=0;strokeColor=default;align=center;verticalAlign=middle;fontFamily=Helvetica;fontSize=11;fontColor=default;labelBackgroundColor=default;endArrow=none;endFill=0;" edge="1" parent="1" source="kLRiGpMpUWYHcSc46owO-93" target="kLRiGpMpUWYHcSc46owO-74">
          <mxGeometry relative="1" as="geometry" />
        </mxCell>
        <mxCell id="kLRiGpMpUWYHcSc46owO-93" value="аудитория" style="ellipse;whiteSpace=wrap;html=1;align=center;fontFamily=Helvetica;fontSize=11;fontColor=default;labelBackgroundColor=default;" vertex="1" parent="1">
          <mxGeometry x="610" y="690" width="100" height="40" as="geometry" />
        </mxCell>
        <mxCell id="kLRiGpMpUWYHcSc46owO-102" style="edgeStyle=orthogonalEdgeStyle;shape=connector;rounded=0;orthogonalLoop=1;jettySize=auto;html=1;entryX=0.5;entryY=1;entryDx=0;entryDy=0;strokeColor=default;align=center;verticalAlign=middle;fontFamily=Helvetica;fontSize=11;fontColor=default;labelBackgroundColor=default;endArrow=none;endFill=0;" edge="1" parent="1" source="kLRiGpMpUWYHcSc46owO-101" target="kLRiGpMpUWYHcSc46owO-74">
          <mxGeometry relative="1" as="geometry" />
        </mxCell>
        <mxCell id="kLRiGpMpUWYHcSc46owO-124" value="*" style="edgeLabel;html=1;align=center;verticalAlign=middle;resizable=0;points=[];fontFamily=Helvetica;fontSize=11;fontColor=default;labelBackgroundColor=default;" vertex="1" connectable="0" parent="kLRiGpMpUWYHcSc46owO-102">
          <mxGeometry x="-0.7669" y="1" relative="1" as="geometry">
            <mxPoint as="offset" />
          </mxGeometry>
        </mxCell>
        <mxCell id="kLRiGpMpUWYHcSc46owO-101" value="Вид занятий" style="rounded=1;arcSize=10;whiteSpace=wrap;html=1;align=center;" vertex="1" parent="1">
          <mxGeometry x="430" y="800" width="100" height="40" as="geometry" />
        </mxCell>
        <mxCell id="kLRiGpMpUWYHcSc46owO-104" value="" style="edgeStyle=orthogonalEdgeStyle;shape=connector;rounded=0;orthogonalLoop=1;jettySize=auto;html=1;strokeColor=default;align=center;verticalAlign=middle;fontFamily=Helvetica;fontSize=11;fontColor=default;labelBackgroundColor=default;endArrow=none;endFill=0;" edge="1" parent="1" source="kLRiGpMpUWYHcSc46owO-103" target="kLRiGpMpUWYHcSc46owO-101">
          <mxGeometry relative="1" as="geometry" />
        </mxCell>
        <mxCell id="kLRiGpMpUWYHcSc46owO-103" value="вид" style="ellipse;whiteSpace=wrap;html=1;align=center;fontStyle=4;fontFamily=Helvetica;fontSize=11;fontColor=default;labelBackgroundColor=default;" vertex="1" parent="1">
          <mxGeometry x="600" y="800" width="100" height="40" as="geometry" />
        </mxCell>
        <mxCell id="kLRiGpMpUWYHcSc46owO-107" style="edgeStyle=orthogonalEdgeStyle;shape=connector;rounded=0;orthogonalLoop=1;jettySize=auto;html=1;entryX=0.5;entryY=1;entryDx=0;entryDy=0;strokeColor=default;align=center;verticalAlign=middle;fontFamily=Helvetica;fontSize=11;fontColor=default;labelBackgroundColor=default;endArrow=none;endFill=0;" edge="1" parent="1" source="kLRiGpMpUWYHcSc46owO-106" target="kLRiGpMpUWYHcSc46owO-47">
          <mxGeometry relative="1" as="geometry" />
        </mxCell>
        <mxCell id="kLRiGpMpUWYHcSc46owO-134" value="*" style="edgeLabel;html=1;align=center;verticalAlign=middle;resizable=0;points=[];fontFamily=Helvetica;fontSize=11;fontColor=default;labelBackgroundColor=default;" vertex="1" connectable="0" parent="kLRiGpMpUWYHcSc46owO-107">
          <mxGeometry x="0.4034" y="2" relative="1" as="geometry">
            <mxPoint as="offset" />
          </mxGeometry>
        </mxCell>
        <mxCell id="kLRiGpMpUWYHcSc46owO-106" value="Должность сотрудника" style="shape=rhombus;perimeter=rhombusPerimeter;whiteSpace=wrap;html=1;align=center;" vertex="1" parent="1">
          <mxGeometry x="860" y="220" width="120" height="60" as="geometry" />
        </mxCell>
        <mxCell id="kLRiGpMpUWYHcSc46owO-111" value="" style="edgeStyle=orthogonalEdgeStyle;shape=connector;rounded=0;orthogonalLoop=1;jettySize=auto;html=1;strokeColor=default;align=center;verticalAlign=middle;fontFamily=Helvetica;fontSize=11;fontColor=default;labelBackgroundColor=default;endArrow=none;endFill=0;" edge="1" parent="1" source="kLRiGpMpUWYHcSc46owO-110" target="kLRiGpMpUWYHcSc46owO-106">
          <mxGeometry relative="1" as="geometry" />
        </mxCell>
        <mxCell id="kLRiGpMpUWYHcSc46owO-131" value="" style="edgeStyle=orthogonalEdgeStyle;shape=connector;rounded=0;orthogonalLoop=1;jettySize=auto;html=1;strokeColor=default;align=center;verticalAlign=middle;fontFamily=Helvetica;fontSize=11;fontColor=default;labelBackgroundColor=default;endArrow=none;endFill=0;" edge="1" parent="1" source="kLRiGpMpUWYHcSc46owO-110" target="kLRiGpMpUWYHcSc46owO-106">
          <mxGeometry relative="1" as="geometry" />
        </mxCell>
        <mxCell id="kLRiGpMpUWYHcSc46owO-133" value="1" style="edgeLabel;html=1;align=center;verticalAlign=middle;resizable=0;points=[];fontFamily=Helvetica;fontSize=11;fontColor=default;labelBackgroundColor=default;" vertex="1" connectable="0" parent="kLRiGpMpUWYHcSc46owO-131">
          <mxGeometry x="-0.7149" y="1" relative="1" as="geometry">
            <mxPoint as="offset" />
          </mxGeometry>
        </mxCell>
        <mxCell id="kLRiGpMpUWYHcSc46owO-110" value="Должность" style="rounded=1;arcSize=10;whiteSpace=wrap;html=1;align=center;" vertex="1" parent="1">
          <mxGeometry x="870" y="370" width="100" height="40" as="geometry" />
        </mxCell>
        <mxCell id="kLRiGpMpUWYHcSc46owO-113" value="" style="edgeStyle=orthogonalEdgeStyle;shape=connector;rounded=0;orthogonalLoop=1;jettySize=auto;html=1;strokeColor=default;align=center;verticalAlign=middle;fontFamily=Helvetica;fontSize=11;fontColor=default;labelBackgroundColor=default;endArrow=none;endFill=0;" edge="1" parent="1" source="kLRiGpMpUWYHcSc46owO-112" target="kLRiGpMpUWYHcSc46owO-110">
          <mxGeometry relative="1" as="geometry" />
        </mxCell>
        <mxCell id="kLRiGpMpUWYHcSc46owO-112" value="Название" style="ellipse;whiteSpace=wrap;html=1;align=center;fontStyle=4;fontFamily=Helvetica;fontSize=11;fontColor=default;labelBackgroundColor=default;" vertex="1" parent="1">
          <mxGeometry x="870" y="460" width="100" height="40" as="geometry" />
        </mxCell>
      </root>
    </mxGraphModel>
  </diagram>
</mxfile>
